<mxfile host="app.diagrams.net" modified="2023-05-02T08:26:58.091Z" agent="Mozilla/5.0 (Windows NT 10.0; Win64; x64) AppleWebKit/537.36 (KHTML, like Gecko) Chrome/112.0.0.0 Safari/537.36" etag="Thrpx9gFIz1Ih5eDWWNr" version="21.2.4" type="github">
  <diagram id="C5RBs43oDa-KdzZeNtuy" name="Page-1">
    <mxGraphModel dx="658" dy="466" grid="1" gridSize="10" guides="1" tooltips="1" connect="1" arrows="1" fold="1" page="1" pageScale="1" pageWidth="827" pageHeight="1169" math="0" shadow="0">
      <root>
        <mxCell id="WIyWlLk6GJQsqaUBKTNV-0" />
        <mxCell id="WIyWlLk6GJQsqaUBKTNV-1" parent="WIyWlLk6GJQsqaUBKTNV-0" />
        <mxCell id="UryUVVJRherXfPNVmYFZ-3" value="Pattern&lt;br&gt;Scheduler" style="whiteSpace=wrap;html=1;aspect=fixed;" vertex="1" parent="WIyWlLk6GJQsqaUBKTNV-1">
          <mxGeometry x="290" y="170" width="80" height="80" as="geometry" />
        </mxCell>
        <mxCell id="UryUVVJRherXfPNVmYFZ-8" value="Front End &lt;br&gt;Compiler" style="rounded=0;whiteSpace=wrap;html=1;" vertex="1" parent="WIyWlLk6GJQsqaUBKTNV-1">
          <mxGeometry x="70" y="335" width="90" height="50" as="geometry" />
        </mxCell>
        <mxCell id="UryUVVJRherXfPNVmYFZ-9" value="" style="endArrow=classic;html=1;rounded=0;exitX=1;exitY=0.5;exitDx=0;exitDy=0;entryX=0;entryY=0.5;entryDx=0;entryDy=0;" edge="1" parent="WIyWlLk6GJQsqaUBKTNV-1" source="UryUVVJRherXfPNVmYFZ-8" target="UryUVVJRherXfPNVmYFZ-18">
          <mxGeometry relative="1" as="geometry">
            <mxPoint x="180" y="200" as="sourcePoint" />
            <mxPoint x="220" y="325" as="targetPoint" />
          </mxGeometry>
        </mxCell>
        <mxCell id="UryUVVJRherXfPNVmYFZ-10" value="DAG" style="edgeLabel;resizable=0;html=1;align=center;verticalAlign=middle;" connectable="0" vertex="1" parent="UryUVVJRherXfPNVmYFZ-9">
          <mxGeometry relative="1" as="geometry" />
        </mxCell>
        <mxCell id="UryUVVJRherXfPNVmYFZ-11" value="Pattern&amp;nbsp;&lt;br&gt;Library" style="rounded=0;whiteSpace=wrap;html=1;" vertex="1" parent="WIyWlLk6GJQsqaUBKTNV-1">
          <mxGeometry x="250" y="70" width="70" height="50" as="geometry" />
        </mxCell>
        <mxCell id="UryUVVJRherXfPNVmYFZ-12" value="Relationship&lt;br&gt;Database" style="rounded=0;whiteSpace=wrap;html=1;" vertex="1" parent="WIyWlLk6GJQsqaUBKTNV-1">
          <mxGeometry x="340" y="70" width="80" height="50" as="geometry" />
        </mxCell>
        <mxCell id="UryUVVJRherXfPNVmYFZ-13" value="" style="endArrow=classic;html=1;rounded=0;exitX=0.5;exitY=1;exitDx=0;exitDy=0;entryX=0.25;entryY=0;entryDx=0;entryDy=0;" edge="1" parent="WIyWlLk6GJQsqaUBKTNV-1" source="UryUVVJRherXfPNVmYFZ-11" target="UryUVVJRherXfPNVmYFZ-3">
          <mxGeometry relative="1" as="geometry">
            <mxPoint x="270" y="230" as="sourcePoint" />
            <mxPoint x="370" y="230" as="targetPoint" />
          </mxGeometry>
        </mxCell>
        <mxCell id="UryUVVJRherXfPNVmYFZ-14" value="patterns" style="edgeLabel;resizable=0;html=1;align=center;verticalAlign=middle;" connectable="0" vertex="1" parent="UryUVVJRherXfPNVmYFZ-13">
          <mxGeometry relative="1" as="geometry" />
        </mxCell>
        <mxCell id="UryUVVJRherXfPNVmYFZ-15" value="" style="endArrow=classic;html=1;rounded=0;exitX=0.5;exitY=1;exitDx=0;exitDy=0;entryX=0.75;entryY=0;entryDx=0;entryDy=0;" edge="1" parent="WIyWlLk6GJQsqaUBKTNV-1" source="UryUVVJRherXfPNVmYFZ-12" target="UryUVVJRherXfPNVmYFZ-3">
          <mxGeometry relative="1" as="geometry">
            <mxPoint x="270" y="230" as="sourcePoint" />
            <mxPoint x="370" y="230" as="targetPoint" />
          </mxGeometry>
        </mxCell>
        <mxCell id="UryUVVJRherXfPNVmYFZ-16" value="relationships" style="edgeLabel;resizable=0;html=1;align=center;verticalAlign=middle;" connectable="0" vertex="1" parent="UryUVVJRherXfPNVmYFZ-15">
          <mxGeometry relative="1" as="geometry" />
        </mxCell>
        <mxCell id="UryUVVJRherXfPNVmYFZ-18" value="Pattern Matcher" style="whiteSpace=wrap;html=1;aspect=fixed;" vertex="1" parent="WIyWlLk6GJQsqaUBKTNV-1">
          <mxGeometry x="230" y="327.5" width="65" height="65" as="geometry" />
        </mxCell>
        <mxCell id="UryUVVJRherXfPNVmYFZ-19" value="Pattern&lt;br&gt;Rewriter" style="whiteSpace=wrap;html=1;aspect=fixed;" vertex="1" parent="WIyWlLk6GJQsqaUBKTNV-1">
          <mxGeometry x="370" y="330" width="62.5" height="62.5" as="geometry" />
        </mxCell>
        <mxCell id="UryUVVJRherXfPNVmYFZ-22" value="" style="endArrow=classic;html=1;rounded=0;exitX=0.25;exitY=1;exitDx=0;exitDy=0;entryX=0.5;entryY=0;entryDx=0;entryDy=0;" edge="1" parent="WIyWlLk6GJQsqaUBKTNV-1" source="UryUVVJRherXfPNVmYFZ-3" target="UryUVVJRherXfPNVmYFZ-18">
          <mxGeometry relative="1" as="geometry">
            <mxPoint x="270" y="260" as="sourcePoint" />
            <mxPoint x="370" y="260" as="targetPoint" />
          </mxGeometry>
        </mxCell>
        <mxCell id="UryUVVJRherXfPNVmYFZ-23" value="pattern &lt;br&gt;match next" style="edgeLabel;resizable=0;html=1;align=center;verticalAlign=middle;" connectable="0" vertex="1" parent="UryUVVJRherXfPNVmYFZ-22">
          <mxGeometry relative="1" as="geometry" />
        </mxCell>
        <mxCell id="UryUVVJRherXfPNVmYFZ-24" value="" style="endArrow=classic;html=1;rounded=0;entryX=0.5;entryY=0;entryDx=0;entryDy=0;exitX=0.75;exitY=1;exitDx=0;exitDy=0;" edge="1" parent="WIyWlLk6GJQsqaUBKTNV-1" source="UryUVVJRherXfPNVmYFZ-3" target="UryUVVJRherXfPNVmYFZ-19">
          <mxGeometry relative="1" as="geometry">
            <mxPoint x="332" y="249.9999999999999" as="sourcePoint" />
            <mxPoint x="384" y="328.4999999999999" as="targetPoint" />
          </mxGeometry>
        </mxCell>
        <mxCell id="UryUVVJRherXfPNVmYFZ-25" value="rewrite&lt;br&gt;now!" style="edgeLabel;resizable=0;html=1;align=center;verticalAlign=middle;" connectable="0" vertex="1" parent="UryUVVJRherXfPNVmYFZ-24">
          <mxGeometry relative="1" as="geometry" />
        </mxCell>
        <mxCell id="UryUVVJRherXfPNVmYFZ-26" value="" style="endArrow=classic;html=1;rounded=0;exitX=1;exitY=0.5;exitDx=0;exitDy=0;entryX=0;entryY=0.5;entryDx=0;entryDy=0;" edge="1" parent="WIyWlLk6GJQsqaUBKTNV-1" source="UryUVVJRherXfPNVmYFZ-18" target="UryUVVJRherXfPNVmYFZ-19">
          <mxGeometry relative="1" as="geometry">
            <mxPoint x="260" y="290" as="sourcePoint" />
            <mxPoint x="360" y="290" as="targetPoint" />
          </mxGeometry>
        </mxCell>
        <mxCell id="UryUVVJRherXfPNVmYFZ-27" value="match&lt;br&gt;info" style="edgeLabel;resizable=0;html=1;align=center;verticalAlign=middle;" connectable="0" vertex="1" parent="UryUVVJRherXfPNVmYFZ-26">
          <mxGeometry relative="1" as="geometry" />
        </mxCell>
        <mxCell id="UryUVVJRherXfPNVmYFZ-29" value="" style="endArrow=classic;html=1;rounded=0;entryX=0;entryY=0.75;entryDx=0;entryDy=0;exitX=0;exitY=0.25;exitDx=0;exitDy=0;fillColor=#0077FF;strokeColor=#000000;" edge="1" parent="WIyWlLk6GJQsqaUBKTNV-1" source="UryUVVJRherXfPNVmYFZ-18" target="UryUVVJRherXfPNVmYFZ-3">
          <mxGeometry relative="1" as="geometry">
            <mxPoint x="150" y="290" as="sourcePoint" />
            <mxPoint x="250" y="290" as="targetPoint" />
            <Array as="points">
              <mxPoint x="220" y="300" />
              <mxPoint x="230" y="270" />
            </Array>
          </mxGeometry>
        </mxCell>
        <mxCell id="UryUVVJRherXfPNVmYFZ-30" value="match&lt;br&gt;info" style="edgeLabel;resizable=0;html=1;align=center;verticalAlign=middle;" connectable="0" vertex="1" parent="UryUVVJRherXfPNVmYFZ-29">
          <mxGeometry relative="1" as="geometry" />
        </mxCell>
        <mxCell id="UryUVVJRherXfPNVmYFZ-31" value="" style="endArrow=classic;html=1;rounded=0;exitX=0.5;exitY=1;exitDx=0;exitDy=0;entryX=0.372;entryY=1.012;entryDx=0;entryDy=0;entryPerimeter=0;" edge="1" parent="WIyWlLk6GJQsqaUBKTNV-1" source="UryUVVJRherXfPNVmYFZ-19" target="UryUVVJRherXfPNVmYFZ-18">
          <mxGeometry relative="1" as="geometry">
            <mxPoint x="270" y="460" as="sourcePoint" />
            <mxPoint x="370" y="460" as="targetPoint" />
            <Array as="points">
              <mxPoint x="320" y="430" />
            </Array>
          </mxGeometry>
        </mxCell>
        <mxCell id="UryUVVJRherXfPNVmYFZ-32" value="DAG&lt;br&gt;updated" style="edgeLabel;resizable=0;html=1;align=center;verticalAlign=middle;" connectable="0" vertex="1" parent="UryUVVJRherXfPNVmYFZ-31">
          <mxGeometry relative="1" as="geometry" />
        </mxCell>
        <mxCell id="UryUVVJRherXfPNVmYFZ-33" value="" style="endArrow=classic;html=1;rounded=0;exitX=1;exitY=0.5;exitDx=0;exitDy=0;entryX=0;entryY=0.5;entryDx=0;entryDy=0;" edge="1" parent="WIyWlLk6GJQsqaUBKTNV-1" source="UryUVVJRherXfPNVmYFZ-19" target="UryUVVJRherXfPNVmYFZ-35">
          <mxGeometry relative="1" as="geometry">
            <mxPoint x="500" y="360" as="sourcePoint" />
            <mxPoint x="510" y="360" as="targetPoint" />
          </mxGeometry>
        </mxCell>
        <mxCell id="UryUVVJRherXfPNVmYFZ-34" value="Optimized&lt;br&gt;DAG" style="edgeLabel;resizable=0;html=1;align=center;verticalAlign=middle;" connectable="0" vertex="1" parent="UryUVVJRherXfPNVmYFZ-33">
          <mxGeometry relative="1" as="geometry" />
        </mxCell>
        <mxCell id="UryUVVJRherXfPNVmYFZ-35" value="Back End Compiler" style="rounded=0;whiteSpace=wrap;html=1;" vertex="1" parent="WIyWlLk6GJQsqaUBKTNV-1">
          <mxGeometry x="510" y="333.75" width="90" height="55" as="geometry" />
        </mxCell>
      </root>
    </mxGraphModel>
  </diagram>
</mxfile>
